<svg width="56" height="56" viewBox="0 0 56 56" fill="none" xmlns="http://www.w3.org/2000/svg">
<path fill-rule="evenodd" clip-rule="evenodd" d="M26.9209 26.8298C26.9092 12.059 14.8606 0.0888672 0 0.0888672V9.00963C9.91184 9.00963 17.9478 16.9971 17.9478 26.8503H26.9209V26.8298Z" fill="#FF6B00"/>
<path fill-rule="evenodd" clip-rule="evenodd" d="M26.9209 55.9693C26.9047 41.203 14.8579 29.2373 0 29.2373V38.1581C9.91184 38.1581 17.9478 46.1456 17.9478 55.9996H26.9209V55.9693Z" fill="#FF6B00"/>
<path fill-rule="evenodd" clip-rule="evenodd" d="M29.0781 55.9996V55.9871C29.0853 41.2128 41.1357 29.2373 55.9999 29.2373V38.1581C46.0872 38.1581 38.052 46.1456 38.052 55.9996H29.0781Z" fill="#FF6B00"/>
<path fill-rule="evenodd" clip-rule="evenodd" d="M47.0212 0H55.9687V27.0052H47.0051V13.7362L35.4271 27.08L29.0788 20.6859L47.0051 0.0189435V0H47.0212ZM35.4271 27.0809H29.0779V20.6868L35.4271 27.0809Z" fill="#FF6B00"/>
</svg>
