<svg width="44" height="40" viewBox="0 0 44 40" fill="none" xmlns="http://www.w3.org/2000/svg">
<path d="M15.4254 3H29.7054C35.1454 3 39.5654 7.42 39.5654 12.86V27.14C39.5654 29.755 38.5266 32.263 36.6775 34.1121C34.8284 35.9612 32.3205 37 29.7054 37H15.4254C9.98543 37 5.56543 32.58 5.56543 27.14V12.86C5.56543 10.245 6.60425 7.73704 8.45336 5.88793C10.3025 4.03882 12.8104 3 15.4254 3ZM15.0854 6.4C13.4623 6.4 11.9057 7.04478 10.7579 8.19251C9.61021 9.34023 8.96543 10.8969 8.96543 12.52V27.48C8.96543 30.863 11.7024 33.6 15.0854 33.6H30.0454C31.6686 33.6 33.2252 32.9552 34.3729 31.8075C35.5206 30.6598 36.1654 29.1031 36.1654 27.48V12.52C36.1654 9.137 33.4284 6.4 30.0454 6.4H15.0854ZM31.4904 8.95C32.054 8.95 32.5945 9.17388 32.993 9.5724C33.3915 9.97091 33.6154 10.5114 33.6154 11.075C33.6154 11.6386 33.3915 12.1791 32.993 12.5776C32.5945 12.9761 32.054 13.2 31.4904 13.2C30.9268 13.2 30.3863 12.9761 29.9878 12.5776C29.5893 12.1791 29.3654 11.6386 29.3654 11.075C29.3654 10.5114 29.5893 9.97091 29.9878 9.5724C30.3863 9.17388 30.9268 8.95 31.4904 8.95ZM22.5654 11.5C24.8198 11.5 26.9818 12.3955 28.5758 13.9896C30.1699 15.5837 31.0654 17.7457 31.0654 20C31.0654 22.2543 30.1699 24.4163 28.5758 26.0104C26.9818 27.6045 24.8198 28.5 22.5654 28.5C20.3111 28.5 18.1491 27.6045 16.555 26.0104C14.961 24.4163 14.0654 22.2543 14.0654 20C14.0654 17.7457 14.961 15.5837 16.555 13.9896C18.1491 12.3955 20.3111 11.5 22.5654 11.5ZM22.5654 14.9C21.2128 14.9 19.9156 15.4373 18.9592 16.3938C18.0027 17.3502 17.4654 18.6474 17.4654 20C17.4654 21.3526 18.0027 22.6498 18.9592 23.6062C19.9156 24.5627 21.2128 25.1 22.5654 25.1C23.918 25.1 25.2152 24.5627 26.1717 23.6062C27.1281 22.6498 27.6654 21.3526 27.6654 20C27.6654 18.6474 27.1281 17.3502 26.1717 16.3938C25.2152 15.4373 23.918 14.9 22.5654 14.9Z" fill="white"/>
</svg>
