<svg width="44" height="40" viewBox="0 0 44 40" fill="none" xmlns="http://www.w3.org/2000/svg">
<path d="M40.0654 23.8453V37H32.3492V24.726C32.3492 21.6419 31.2327 19.5383 28.4406 19.5383C26.3086 19.5383 25.0388 20.9573 24.4815 22.3282C24.2777 22.8185 24.2254 23.5013 24.2254 24.1876V37H16.5055C16.5055 37 16.6101 16.2135 16.5055 14.0582H24.2254V17.3099L24.1749 17.3848H24.2254V17.3099C25.2499 15.75 27.0806 13.5198 31.1804 13.5198C36.2578 13.5198 40.0654 16.8 40.0654 23.8453ZM8.43218 3C5.79337 3 4.06543 4.71141 4.06543 6.96298C4.06543 9.16464 5.74287 10.9277 8.33117 10.9277H8.38168C11.0746 10.9277 12.7466 9.16464 12.7466 6.96298C12.6997 4.71141 11.0746 3 8.43218 3ZM4.52357 37H12.2398V14.0582H4.52357V37Z" fill="white"/>
</svg>
